<?xml version="1.0" standalone="no"?><!DOCTYPE svg PUBLIC "-//W3C//DTD SVG 1.1//EN" "http://www.w3.org/Graphics/SVG/1.1/DTD/svg11.dtd"><svg t="1668698932389" class="icon" viewBox="0 0 1024 1024" version="1.1" xmlns="http://www.w3.org/2000/svg" p-id="982" xmlns:xlink="http://www.w3.org/1999/xlink" width="200" height="200"><path d="M297.3696 645.6832c-51.5072 0-93.44-41.9328-93.44-93.44s41.9328-93.44 93.44-93.44 93.44 41.9328 93.44 93.44-41.9328 93.44-93.44 93.44z m0-125.3888c-17.664 0-32 14.336-32 32s14.336 32 32 32 32-14.336 32-32-14.336-32-32-32z" fill="#50DEFF" p-id="983"></path><path d="M923.3408 557.8752V473.7024c0-62.8736-43.8272-115.6096-102.5024-129.4848l-63.0272-158.976c-11.8784-29.952-40.3968-49.3568-72.6528-49.3568H332.4928c-31.8464 0-60.2112 19.0464-72.2944 48.4864L195.4304 342.3232c-63.2832 10.24-111.7696 65.2288-111.7696 131.3792v231.4752c0 38.2976 31.1296 69.4272 69.4272 69.4272h8.6528v22.5792c0 38.5536 31.3856 69.9392 69.9392 69.9392h78.9504c38.5536 0 69.9392-31.3856 69.9392-69.9392v-22.5792h175.3088c36.2496 66.304 106.7008 111.36 187.4432 111.36 117.7088 0 213.504-95.7952 213.504-213.504 0-42.1376-12.3392-81.4592-33.4848-114.5856zM317.0304 207.6672c2.56-6.2976 8.6528-10.3424 15.4624-10.3424h352.7168c6.912 0 13.0048 4.1472 15.5136 10.5472l52.6336 132.7616H262.5536l54.4768-132.9664z m2.0992 589.5168c0 4.7104-3.7888 8.4992-8.4992 8.4992H231.68c-4.7104 0-8.4992-3.84-8.4992-8.4992v-22.5792h95.9488v22.5792z m30.72-84.0192H153.088c-4.4032 0-7.9872-3.584-7.9872-7.9872V473.7024c0-39.5264 32.1536-71.6288 71.6288-71.6288h573.4912c39.5264 0 71.6288 32.1536 71.6288 71.6288v21.3504a212.49024 212.49024 0 0 0-118.5792-36.0448c-117.7088 0-213.504 95.7952-213.504 213.504 0 13.9264 1.3824 27.4944 3.9424 40.704H349.8496z m393.472 111.36c-83.8656 0-152.064-68.1984-152.064-152.064s68.1984-152.064 152.064-152.064 152.064 68.1984 152.064 152.064-68.1984 152.064-152.064 152.064z" fill="#444444" p-id="984"></path><path d="M722.7904 770.4064h-0.0512a30.5664 30.5664 0 0 1-22.8864-10.3424l-61.44-69.2736a30.70976 30.70976 0 0 1 2.6112-43.3664 30.70976 30.70976 0 0 1 43.3664 2.6112l38.5536 43.4688 75.4688-84.3264c11.3152-12.6464 30.72-13.7216 43.3664-2.4064 12.6464 11.3152 13.7216 30.72 2.4064 43.3664l-98.4576 110.0288c-5.8368 6.5024-14.1824 10.24-22.9376 10.24z" fill="#50DEFF" p-id="985"></path></svg>